<?xml version="1.0" standalone="no"?><!DOCTYPE svg PUBLIC "-//W3C//DTD SVG 1.1//EN" "http://www.w3.org/Graphics/SVG/1.1/DTD/svg11.dtd" ><svg xmlns="http://www.w3.org/2000/svg"><metadata></metadata><defs><font id="Google:Roboto Condensed Regular:2016" horiz-adv-x="1693"><font-face font-family="Roboto Condensed" font-weight="400" font-stretch="normal" units-per-em="2048" panose-1="2 0 0 0 0 0 0 0 0 0" ascent="1900" descent="-500" x-height="0" bbox="-83 -470 1617 1858" underline-thickness="100" underline-position="-150" unicode-range="U+0021-2122" /><missing-glyph horiz-adv-x="803" d="M104 0 l0 1456 l595 0 l0 -1456 l-595 0 ZM184 1402 l216 -605 l215 605 l-431 0 ZM424 728 l229 -642 l0 1284 l-229 -642 ZM149 1362 l0 -1268 l226 634 l-226 634 ZM184 54 l431 0 l-215 605 l-216 -605 Z" /><glyph glyph-name="exclam" unicode="!" d="M346 1456 l-13 -1045 l-159 0 l-14 1045 l186 0 ZM157 93 q0 45 25.5 76 q25.5 31 74.5 31 q50 0 75.5 -31 q25.5 -31 25.5 -76 q0 -43 -25.5 -74 q-25.5 -31 -75.5 -31 q-49 0 -74.5 31 q-25.5 31 -25.5 74 Z" /><glyph glyph-name="quotedbl" unicode="&quot;" d="M278 1400 l-30 -357 l-111 0 l0 493 l141 0 l0 -136 ZM548 1400 l-30 -357 l-111 0 l0 493 l141 0 l0 -136 Z" /><glyph glyph-name="numbersign" unicode="#" d="M599 0 l68 410 l-206 0 l-68 -410 l-134 0 l68 410 l-196 0 l0 138 l219 0 l58 353 l-213 0 l0 139 l236 0 l69 416 l135 0 l-69 -416 l206 0 l69 416 l134 0 l-69 -416 l163 0 l0 -139 l-186 0 l-58 -353 l181 0 l0 -138 l-204 0 l-68 -410 l-135 0 ZM484 548 l206 0 l59 353 l-206 0 l-59 -353 Z" /><glyph glyph-name="dollar" unicode="$" d="M901 377 q0 -172 -87.5 -272.5 q-87.5 -100.5 -236.5 -120.5 l0 -192 l-140 0 l0 191 q-127 18 -226.5 119.5 q-99.5 101.5 -99.5 326.5 l177 0 q0 -169 68.5 -228.5 q68.5 -59.5 144.5 -59.5 q107 0 165.5 63.5 q58.5 63.5 58.5 170.5 q0 89 -50.5 154 q-50.5 65 -172.5 116 q-159 59 -251 158 q-92 99 -92 277 q0 164 80 267.5 q80 103.5 217 124.5 l0 220 l140 0 l0 -221 q140 -24 217 -142.5 q77 -118.5 77 -320.5 l-176 0 q0 134 -49 220.5 q-49 86.5 -141 86.5 q-96 0 -142 -64.5 q-46 -64.5 -46 -167.5 q0 -97 50 -158 q50 -61 178 -116 q164 -62 250.5 -158 q86.5 -96 86.5 -274 Z" /><glyph glyph-name="percent" unicode="%" d="M107 1099 l0 77 q0 124 67.5 212.5 q67.5 88.5 186.5 88.5 q121 0 188.5 -88.5 q67.5 -88.5 67.5 -212.5 l0 -77 q0 -122 -67 -210.5 q-67 -88.5 -187 -88.5 q-120 0 -188 88.5 q-68 88.5 -68 210.5 ZM237 1176 l0 -77 q0 -69 30.5 -124 q30.5 -55 95.5 -55 q63 0 93.5 54.5 q30.5 54.5 30.5 124.5 l0 77 q0 70 -31 125.5 q-31 55.5 -95 55.5 q-63 0 -93.5 -55.5 q-30.5 -55.5 -30.5 -125.5 ZM997 1249 l-597 -1138 l-98 66 l598 1138 l97 -66 ZM695 279 l0 78 q0 123 68 211.5 q68 88.5 187 88.5 q120 0 187.5 -88.5 q67.5 -88.5 67.5 -211.5 l0 -78 q0 -123 -67.5 -211.5 q-67.5 -88.5 -186.5 -88.5 q-120 0 -188 88.5 q-68 88.5 -68 211.5 ZM825 357 l0 -78 q0 -70 31 -125 q31 -55 95 -55 q63 0 93.5 54.5 q30.5 54.5 30.5 125.5 l0 78 q0 71 -31 125.5 q-31 54.5 -94 54.5 q-63 0 -94 -54.5 q-31 -54.5 -31 -125.5 Z" /><glyph glyph-name="ampersand" unicode="&amp;" d="M885 0 l-74 108 q-63 -64 -145.5 -96 q-82.5 -32 -160.5 -32 q-186 0 -294 116 q-108 116 -108 296 q0 129 66.5 218 q66.5 89 173.5 176 q-64 91 -104 170.5 q-40 79.5 -40 166.5 q0 170 86.5 261.5 q86.5 91.5 229.5 91.5 q139 0 220.5 -91.5 q81.5 -91.5 81.5 -215.5 q0 -106 -44.5 -179 q-44.5 -73 -122.5 -138 l-91 -78 l256 -369 q47 122 47 267 l158 0 q0 -252 -102 -416 l178 -256 l-211 0 ZM376 1129 q0 -54 26.5 -111 q26.5 -57 70.5 -121 l76 66 q53 43 79 86.5 q26 43.5 26 119.5 q0 59 -36.5 107.5 q-36.5 48.5 -103.5 48.5 q-68 0 -103 -58.5 q-35 -58.5 -35 -137.5 ZM280 392 q0 -106 55.5 -183 q55.5 -77 169.5 -77 q117 0 214 110 l-288 421 l-31 -26 q-84 -79 -102 -146 q-18 -67 -18 -99 Z" /><glyph glyph-name="quotesingle" unicode="&#39;" d="M254 1536 l0 -110 l-21 -368 l-129 0 l1 351 l0 127 l149 0 Z" /><glyph glyph-name="parenleft" unicode="(" d="M130 582 l0 10 q0 290 73.5 507 q73.5 217 173 354 q99.5 137 176.5 190 l36 -122 q-94 -89 -188 -318 q-94 -229 -94 -609 l0 -14 q0 -380 94 -611 q94 -231 188 -327 l-36 -112 q-77 52 -176.5 189 q-99.5 137 -173 354 q-73.5 217 -73.5 509 Z" /><glyph glyph-name="parenright" unicode=")" d="M513 592 l0 -10 q0 -292 -73.5 -509 q-73.5 -217 -173 -354 q-99.5 -137 -176.5 -189 l-36 112 q94 89 188.5 323.5 q94.5 234.5 94.5 614.5 l0 14 q0 253 -47.5 441.5 q-47.5 188.5 -113.5 312.5 q-66 124 -122 182 l36 113 q77 -53 176.5 -190 q99.5 -137 173 -354 q73.5 -217 73.5 -507 Z" /><glyph glyph-name="asterisk" unicode="*" d="M129 708 l201 276 l-302 90 l47 150 l302 -111 l-9 344 l152 0 l-10 -350 l298 111 l46 -153 l-307 -91 l197 -271 l-124 -93 l-185 288 l-181 -281 l-125 91 Z" /><glyph glyph-name="plus" unicode="+" d="M925 607 l-329 0 l0 -461 l-177 0 l0 461 l-332 0 l0 174 l332 0 l0 425 l177 0 l0 -425 l329 0 l0 -174 Z" /><glyph glyph-name="comma" unicode="," d="M309 220 l0 -149 q0 -91 -46 -192.5 q-46 -101.5 -129 -169.5 l-105 73 q47 66 73 135.5 q26 69.5 26 150.5 l0 152 l181 0 Z" /><glyph glyph-name="hyphen" unicode="-" d="M461 695 l0 -152 l-413 0 l0 152 l413 0 Z" /><glyph glyph-name="period" unicode="." d="M144 98 q0 47 29.5 79.5 q29.5 32.5 85.5 32.5 q56 0 85.5 -32.5 q29.5 -32.5 29.5 -79.5 q0 -46 -29.5 -78 q-29.5 -32 -85.5 -32 q-56 0 -85.5 32 q-29.5 32 -29.5 78 Z" /><glyph glyph-name="slash" unicode="/" d="M691 1456 l-510 -1581 l-149 0 l511 1581 l148 0 Z" /><glyph glyph-name="zero" unicode="0" d="M895 844 l0 -222 q0 -358 -105.5 -500 q-105.5 -142 -283.5 -142 q-176 0 -283.5 142 q-107.5 142 -107.5 500 l0 222 q0 357 107.5 494.5 q107.5 137.5 282.5 137.5 q178 0 284 -137.5 q106 -137.5 106 -494.5 ZM719 592 l0 283 q0 246 -55.5 348 q-55.5 102 -158.5 102 q-102 0 -157.5 -102 q-55.5 -102 -55.5 -348 l0 -283 q0 -244 56.5 -352 q56.5 -108 157.5 -108 q105 0 159 108 q54 108 54 352 Z" /><glyph glyph-name="one" unicode="1" d="M644 1464 l0 -1464 l-177 0 l0 1233 l-306 -136 l0 167 l456 200 l27 0 Z" /><glyph glyph-name="two" unicode="2" d="M931 152 l0 -152 l-814 0 l0 133 l401 531 q110 147 146 231.5 q36 84.5 36 169.5 q0 107 -51.5 183 q-51.5 76 -144.5 76 q-122 0 -177 -83 q-55 -83 -55 -213 l-177 0 q0 184 102.5 316 q102.5 132 306.5 132 q176 0 274.5 -107 q98.5 -107 98.5 -282 q0 -129 -65.5 -260 q-65.5 -131 -159.5 -252 l-323 -423 l602 0 Z" /><glyph glyph-name="three" unicode="3" d="M458 667 l-114 0 l0 152 l114 0 q114 0 169.5 71 q55.5 71 55.5 178 q0 256 -197 256 q-93 0 -148.5 -67.5 q-55.5 -67.5 -55.5 -181.5 l-176 0 q0 167 103 284 q103 117 277 117 q166 0 270 -104.5 q104 -104.5 104 -307.5 q0 -81 -44 -172.5 q-44 -91.5 -144 -143.5 q123 -46 164 -144.5 q41 -98.5 41 -197.5 q0 -204 -112.5 -315 q-112.5 -111 -279.5 -111 q-163 0 -275 105.5 q-112 105.5 -112 299.5 l177 0 q0 -115 55.5 -184 q55.5 -69 154.5 -69 q98 0 156.5 67 q58.5 67 58.5 203 q0 136 -65 200.5 q-65 64.5 -177 64.5 Z" /><glyph glyph-name="four" unicode="4" d="M60 447 l541 1009 l187 0 l0 -966 l162 0 l0 -152 l-162 0 l0 -338 l-177 0 l0 338 l-551 0 l0 109 ZM257 490 l354 0 l0 695 l-10 -21 l-344 -674 Z" /><glyph glyph-name="five" unicode="5" d="M331 693 l-141 38 l62 725 l634 0 l0 -171 l-485 0 l-34 -396 q34 23 82 43 q48 20 112 20 q171 0 268 -132.5 q97 -132.5 97 -355.5 q0 -209 -99 -346.5 q-99 -137.5 -297 -137.5 q-148 0 -258 99.5 q-110 99.5 -127 303.5 l167 0 q29 -251 218 -251 q103 0 161 89 q58 89 58 241 q0 137 -60 230.5 q-60 93.5 -171 93.5 q-75 0 -110.5 -25 q-35.5 -25 -76.5 -68 Z" /><glyph glyph-name="six" unicode="6" d="M911 475 q0 -207 -97 -351 q-97 -144 -289 -144 q-136 0 -223 83.5 q-87 83.5 -128.5 212 q-41.5 128.5 -41.5 263.5 l0 87 q0 154 22 302 q22 148 83.5 268 q61.5 120 178 191 q116.5 71 304.5 71 l13 0 l0 -157 l-13 0 q-151 0 -237 -66 q-86 -66 -124 -173 q-38 -107 -46 -228 q94 121 247 121 q124 0 201.5 -70 q77.5 -70 113.5 -180.5 q36 -110.5 36 -229.5 ZM310 533 q0 -194 67.5 -297 q67.5 -103 147.5 -103 q102 0 156.5 93.5 q54.5 93.5 54.5 239.5 q0 130 -50 233 q-50 103 -155 103 q-75 0 -135.5 -56.5 q-60.5 -56.5 -85.5 -137.5 l0 -75 Z" /><glyph glyph-name="seven" unicode="7" d="M921 1456 l0 -104 l-501 -1352 l-186 0 l501 1304 l-649 0 l0 152 l835 0 Z" /><glyph glyph-name="eight" unicode="8" d="M894 394 q0 -200 -111.5 -307 q-111.5 -107 -277.5 -107 q-165 0 -276.5 107 q-111.5 107 -111.5 307 q0 122 54.5 215.5 q54.5 93.5 148.5 141.5 q-176 102 -176 326 q0 191 102 295 q102 104 260 104 q158 0 259.5 -104 q101.5 -104 101.5 -295 q0 -108 -48.5 -193.5 q-48.5 -85.5 -130.5 -133.5 q94 -48 150 -141.5 q56 -93.5 56 -214.5 ZM690 1074 q0 109 -50 179.5 q-50 70.5 -134 70.5 q-84 0 -134.5 -67.5 q-50.5 -67.5 -50.5 -182.5 q0 -113 50 -181 q50 -68 135 -68 q84 0 134 68 q50 68 50 181 ZM718 398 q0 122 -58.5 199 q-58.5 77 -155.5 77 q-99 0 -155 -77 q-56 -77 -56 -199 q0 -126 55.5 -196 q55.5 -70 156.5 -70 q102 0 157.5 70 q55.5 70 55.5 196 Z" /><glyph glyph-name="nine" unicode="9" d="M878 820 q0 -142 -18 -286.5 q-18 -144.5 -76 -266 q-58 -121.5 -175.5 -195.5 q-117.5 -74 -317.5 -74 l-13 0 l-1 157 l14 0 q165 0 252 66 q87 66 120 173.5 q33 107.5 38 229.5 q-47 -61 -111 -99 q-64 -38 -138 -38 q-124 0 -200.5 72 q-76.5 72 -112 183.5 q-35.5 111.5 -35.5 230.5 q0 208 95.5 355.5 q95.5 147.5 287.5 147.5 q143 0 229 -86 q86 -86 124 -221 q38 -135 38 -282 l0 -67 ZM277 983 q0 -130 49.5 -236 q49.5 -106 155.5 -106 q67 0 128 56.5 q61 56.5 92 139.5 l0 75 q0 199 -67.5 305 q-67.5 106 -147.5 106 q-101 0 -155.5 -97.5 q-54.5 -97.5 -54.5 -242.5 Z" /><glyph glyph-name="colon" unicode=":" d="M138 98 q0 47 29.5 79.5 q29.5 32.5 85.5 32.5 q56 0 85.5 -32.5 q29.5 -32.5 29.5 -79.5 q0 -46 -29.5 -78 q-29.5 -32 -85.5 -32 q-56 0 -85.5 32 q-29.5 32 -29.5 78 ZM137 981 q0 47 29.5 79.5 q29.5 32.5 85.5 32.5 q56 0 85.5 -32.5 q29.5 -32.5 29.5 -79.5 q0 -46 -29.5 -78 q-29.5 -32 -85.5 -32 q-56 0 -85.5 32 q-29.5 32 -29.5 78 Z" /><glyph glyph-name="semicolon" unicode=";" d="M114 981 q0 47 29.5 79.5 q29.5 32.5 85.5 32.5 q56 0 85.5 -32.5 q29.5 -32.5 29.5 -79.5 q0 -46 -29.5 -78 q-29.5 -32 -85.5 -32 q-56 0 -85.5 32 q-29.5 32 -29.5 78 ZM323 220 l0 -149 q0 -91 -46 -192.5 q-46 -101.5 -129 -169.5 l-105 73 q47 66 73 135.5 q26 69.5 26 150.5 l0 152 l181 0 Z" /><glyph glyph-name="less" unicode="&lt;" d="M763 196 l-684 379 l0 145 l684 378 l0 -196 l-509 -257 l509 -253 l0 -196 Z" /><glyph glyph-name="equal" unicode="=" d="M849 975 l0 -161 l-700 0 l0 161 l700 0 ZM849 560 l0 -161 l-700 0 l0 161 l700 0 Z" /><glyph glyph-name="greater" unicode="&gt;" d="M136 1100 l721 -378 l0 -146 l-721 -379 l0 191 l544 263 l-544 258 l0 191 Z" /><glyph glyph-name="question" unicode="?" d="M491 410 l-177 0 q2 144 34 216 q32 72 113 170 q54 70 97.5 131.5 q43.5 61.5 43.5 163.5 q0 103 -43.5 163 q-43.5 60 -124.5 60 q-64 0 -120.5 -47.5 q-56.5 -47.5 -56.5 -151.5 l-177 0 q2 169 103 265 q101 96 251 96 q164 0 254 -102 q90 -102 90 -278 q0 -134 -69 -239 q-69 -105 -146 -194 q-43 -51 -57.5 -115 q-14.5 -64 -14.5 -138 ZM310 93 q0 45 25 76 q25 31 75 31 q50 0 75.5 -31 q25.5 -31 25.5 -76 q0 -43 -25.5 -74 q-25.5 -31 -75.5 -31 q-50 0 -75 31 q-25 31 -25 74 Z" /><glyph glyph-name="at" unicode="@" d="M1083 -364 q-60 -45 -148 -67 q-88 -22 -167 -22 q-320 0 -493.5 250.5 q-173.5 250.5 -159.5 680.5 q10 274 99.5 489.5 q89.5 215.5 246.5 339.5 q157 124 367 124 q319 0 489 -251 q170 -251 156 -677 q-5 -123 -40 -244 q-35 -121 -110 -200.5 q-75 -79.5 -200 -79.5 q-157 0 -203 161 q-89 -161 -214 -161 q-125 0 -184.5 121 q-59.5 121 -43.5 318 q20 263 127.5 417.5 q107.5 154.5 234.5 154.5 q94 0 147 -31.5 q53 -31.5 102 -74.5 l-44 -554 q-10 -146 24 -189 q34 -43 75 -43 q97 0 150.5 118 q53.5 118 58.5 287 q13 373 -115 585 q-128 212 -413 212 q-262 0 -412 -228 q-150 -228 -162 -594 q-14 -374 122.5 -590 q136.5 -216 397.5 -216 q164 0 278 78 l34 -114 ZM628 418 q-10 -141 22.5 -218 q32.5 -77 101.5 -77 q37 0 80.5 43.5 q43.5 43.5 73.5 143.5 q0 10 1 20 l39 508 q-42 23 -89 23 q-89 0 -151 -112 q-62 -112 -78 -331 Z" /><glyph glyph-name="A" unicode="a" d="M43 0 l469 1456 l158 0 l469 -1456 l-188 0 l-114 381 l-492 0 l-114 -381 l-188 0 ZM393 539 l396 0 l-198 661 l-198 -661 Z" /><glyph glyph-name="B" unicode="b" d="M1000 420 q0 -204 -111.5 -312 q-111.5 -108 -297.5 -108 l-434 0 l0 1456 l416 0 q187 0 293 -92.5 q106 -92.5 106 -295.5 q0 -100 -50.5 -178.5 q-50.5 -78.5 -136.5 -121.5 q105 -33 160 -128.5 q55 -95.5 55 -219.5 ZM341 1298 l0 -462 l234 0 q93 0 153 62 q60 62 60 172 q0 228 -215 228 l-232 0 ZM816 418 q0 122 -51 192.5 q-51 70.5 -167 70.5 l-257 0 l0 -524 l250 0 q107 0 166 70.5 q59 70.5 59 190.5 Z" /><glyph glyph-name="C" unicode="c" d="M886 463 l184 0 q-10 -225 -126 -354 q-116 -129 -343 -129 q-219 0 -347.5 166.5 q-128.5 166.5 -128.5 447.5 l0 269 q0 280 130.5 446.5 q130.5 166.5 362.5 166.5 q212 0 327 -126 q115 -126 125 -361 l-184 0 q-11 172 -72 250.5 q-61 78.5 -196 78.5 q-160 0 -234.5 -124 q-74.5 -124 -74.5 -329 l0 -271 q0 -191 65.5 -324 q65.5 -133 226.5 -133 q151 0 211 76 q60 76 74 250 Z" /><glyph glyph-name="D" unicode="d" d="M157 0 l0 1456 l347 0 q246 0 392 -153.5 q146 -153.5 146 -451.5 l0 -247 q0 -298 -147 -451 q-147 -153 -408 -153 l-330 0 ZM504 1298 l-163 0 l0 -1141 l146 0 q196 0 284.5 113 q88.5 113 88.5 334 l0 249 q0 231 -88 338 q-88 107 -268 107 Z" /><glyph glyph-name="E" unicode="e" d="M157 0 l0 1456 l773 0 l0 -158 l-589 0 l0 -468 l514 0 l0 -157 l-514 0 l0 -516 l599 0 l0 -157 l-783 0 Z" /><glyph glyph-name="F" unicode="f" d="M157 0 l0 1456 l758 0 l0 -158 l-574 0 l0 -497 l491 0 l0 -158 l-491 0 l0 -643 l-184 0 Z" /><glyph glyph-name="G" unicode="g" d="M1069 725 l0 -543 q-24 -32 -72.5 -80 q-48.5 -48 -135.5 -85 q-87 -37 -228 -37 q-226 0 -367.5 152 q-141.5 152 -141.5 460 l0 273 q0 611 490 611 q212 0 328 -118 q116 -118 127 -328 l-184 0 q-11 135 -75.5 211.5 q-64.5 76.5 -195.5 76.5 q-167 0 -236.5 -112 q-69.5 -112 -69.5 -339 l0 -275 q0 -232 88.5 -343.5 q88.5 -111.5 237.5 -111.5 q127 0 177.5 37.5 q50.5 37.5 74.5 58.5 l0 336 l-267 0 l0 156 l450 0 Z" /><glyph glyph-name="H" unicode="h" d="M926 0 l0 673 l-585 0 l0 -673 l-184 0 l0 1456 l184 0 l0 -626 l585 0 l0 626 l184 0 l0 -1456 l-184 0 Z" /><glyph glyph-name="I" unicode="i" d="M349 1456 l0 -1456 l-184 0 l0 1456 l184 0 Z" /><glyph glyph-name="J" unicode="j" d="M660 425 l0 1031 l183 0 l0 -1031 q0 -216 -109.5 -330.5 q-109.5 -114.5 -282.5 -114.5 q-170 0 -281 104 q-111 104 -111 319 l184 0 q0 -138 59.5 -202 q59.5 -64 148.5 -64 q90 0 149.5 73 q59.5 73 59.5 215 Z" /><glyph glyph-name="K" unicode="k" d="M890 0 l-406 671 l-143 -172 l0 -499 l-184 0 l0 1456 l184 0 l0 -701 l120 157 l392 544 l220 0 l-473 -641 l509 -815 l-219 0 Z" /><glyph glyph-name="L" unicode="l" d="M912 157 l0 -157 l-755 0 l0 1456 l184 0 l0 -1299 l571 0 Z" /><glyph glyph-name="M" unicode="m" d="M774 269 l380 1187 l235 0 l0 -1456 l-183 0 l0 568 l17 564 l-380 -1132 l-140 0 l-380 1134 l17 -566 l0 -568 l-183 0 l0 1456 l236 0 l381 -1187 Z" /><glyph glyph-name="N" unicode="n" d="M1109 1456 l0 -1456 l-185 0 l-583 1123 l0 -1123 l-184 0 l0 1456 l184 0 l586 -1126 l0 1126 l182 0 Z" /><glyph glyph-name="O" unicode="o" d="M1104 854 l0 -253 q0 -309 -131 -465 q-131 -156 -357 -156 q-218 0 -354 156 q-136 156 -136 465 l0 253 q0 308 135 465 q135 157 354 157 q226 0 357.5 -157 q131.5 -157 131.5 -465 ZM922 601 l0 255 q0 240 -79 348 q-79 108 -228 108 q-142 0 -224.5 -108 q-82.5 -108 -82.5 -348 l0 -255 q0 -241 83.5 -349.5 q83.5 -108.5 224.5 -108.5 q151 0 228.5 108.5 q77.5 108.5 77.5 349.5 Z" /><glyph glyph-name="P" unicode="p" d="M621 571 l-280 0 l0 -571 l-184 0 l0 1456 l464 0 q211 0 323.5 -125 q112.5 -125 112.5 -319 q0 -211 -112.5 -326 q-112.5 -115 -323.5 -115 ZM341 1298 l0 -570 l280 0 q134 0 193 79 q59 79 59 203 q0 112 -59 200 q-59 88 -193 88 l-280 0 Z" /><glyph glyph-name="Q" unicode="q" d="M1116 -126 l-125 -120 l-261 239 q-58 -13 -123 -13 q-218 0 -354 156 q-136 156 -136 466 l0 252 q0 309 135 465.5 q135 156.5 354 156.5 q226 0 358 -156.5 q132 -156.5 132 -465.5 l0 -252 q0 -377 -197 -531 l217 -197 ZM914 602 l0 254 q0 240 -79.5 348 q-79.5 108 -228.5 108 q-141 0 -223.5 -108 q-82.5 -108 -82.5 -348 l0 -254 q0 -242 83.5 -350.5 q83.5 -108.5 223.5 -108.5 q151 0 229 108.5 q78 108.5 78 350.5 Z" /><glyph glyph-name="R" unicode="r" d="M857 0 l-259 590 l-256 0 l0 -590 l-184 0 l0 1456 l407 0 q434 0 434 -437 q0 -282 -228 -387 l283 -620 l0 -12 l-197 0 ZM342 1298 l0 -551 l221 0 q126 0 189 79.5 q63 79.5 63 192.5 q0 126 -57 202.5 q-57 76.5 -193 76.5 l-223 0 Z" /><glyph glyph-name="S" unicode="s" d="M794 368 q0 102 -54 162 q-54 60 -221 120 q-180 63 -287.5 161.5 q-107.5 98.5 -107.5 268.5 q0 170 113 283 q113 113 304 113 q213 0 325 -135 q112 -135 112 -305 l-184 0 q0 122 -60 202 q-60 80 -193 80 q-121 0 -176.5 -67.5 q-55.5 -67.5 -55.5 -168.5 q0 -92 65.5 -153 q65.5 -61 203.5 -111 q214 -70 307 -174 q93 -104 93 -274 q0 -178 -115.5 -284 q-115.5 -106 -312.5 -106 q-114 0 -221 50 q-107 50 -175.5 148.5 q-68.5 98.5 -68.5 243.5 l184 0 q0 -149 82.5 -217 q82.5 -68 198.5 -68 q120 0 182 62.5 q62 62.5 62 168.5 Z" /><glyph glyph-name="T" unicode="t" d="M61 1298 l0 158 l947 0 l0 -158 l-383 0 l0 -1298 l-182 0 l0 1298 l-382 0 Z" /><glyph glyph-name="U" unicode="u" d="M842 1456 l184 0 l0 -1025 q0 -246 -136 -348.5 q-136 -102.5 -313 -102.5 q-189 0 -318 102.5 q-129 102.5 -129 348.5 l0 1025 l183 0 l0 -1025 q0 -171 72 -232.5 q72 -61.5 192 -61.5 q121 0 193 61.5 q72 61.5 72 232.5 l0 1025 Z" /><glyph glyph-name="V" unicode="v" d="M1107 1456 l-452 -1456 l-160 0 l-452 1456 l200 0 l331 -1177 l333 1177 l200 0 Z" /><glyph glyph-name="W" unicode="w" d="M1506 1456 l-289 -1456 l-166 0 l-242 1061 l-15 86 l-15 -86 l-253 -1061 l-165 0 l-290 1456 l183 0 l182 -996 l19 -163 l29 143 l233 1016 l152 0 l226 -1016 l29 -148 l21 169 l178 995 l183 0 Z" /><glyph glyph-name="X" unicode="x" d="M291 1456 l276 -558 l274 558 l214 0 l-379 -721 l387 -735 l-216 0 l-280 569 l-281 -569 l-217 0 l388 735 l-380 721 l214 0 Z" /><glyph glyph-name="Y" unicode="y" d="M239 1456 l297 -731 l298 731 l208 0 l-414 -912 l0 -544 l-184 0 l0 544 l-414 912 l209 0 Z" /><glyph glyph-name="Z" unicode="z" d="M98 1298 l0 158 l861 0 l0 -140 l-664 -1159 l690 0 l0 -157 l-893 0 l0 144 l662 1154 l-656 0 Z" /><glyph glyph-name="bracketleft" unicode="[" d="M469 1664 l0 -152 l-154 0 l0 -1672 l154 0 l0 -152 l-331 0 l0 1976 l331 0 Z" /><glyph glyph-name="backslash" unicode="\" d="M562 -125 l-510 1581 l166 0 l511 -1581 l-167 0 Z" /><glyph glyph-name="bracketright" unicode="]" d="M31 1512 l0 152 l333 0 l0 -1976 l-333 0 l0 152 l156 0 l0 1672 l-156 0 Z" /><glyph glyph-name="asciicircum" unicode="^" d="M69 729 l252 727 l119 0 l250 -727 l-162 0 l-148 481 l-148 -481 l-163 0 Z" /><glyph glyph-name="underscore" unicode="_" d="M805 0 l0 -152 l-780 0 l0 152 l780 0 Z" /><glyph glyph-name="grave" unicode="`" d="M281 1536 l193 -294 l-159 0 l-258 294 l224 0 Z" /><glyph glyph-name="a" unicode="a" d="M690 0 q-17 39 -24 117 q-37 -55 -98 -96 q-61 -41 -141 -41 q-142 0 -227.5 80 q-85.5 80 -85.5 235 q0 156 107 258.5 q107 102.5 320 102.5 l122 0 l0 116 q0 96 -43.5 137 q-43.5 41 -130.5 41 q-85 0 -132.5 -50 q-47.5 -50 -47.5 -118 l-177 0 q0 116 99 218 q99 102 267 102 q150 0 246 -75 q96 -75 96 -257 l0 -534 q0 -54 8 -115 q8 -61 25 -105 l0 -16 l-183 0 ZM454 141 q75 0 130 39 q55 39 79 87 l0 259 l-93 0 q-127 0 -203 -54 q-76 -54 -76 -155 q0 -97 40.5 -136.5 q40.5 -39.5 122.5 -39.5 Z" /><glyph glyph-name="b" unicode="b" d="M917 489 q0 -257 -93 -383 q-93 -126 -263 -126 q-171 0 -257 148 l-9 -128 l-162 0 l0 1536 l177 0 l0 -571 q85 137 250 137 q172 0 264.5 -122.5 q92.5 -122.5 92.5 -389.5 l0 -101 ZM514 946 q-75 0 -125 -42 q-50 -42 -79 -105 l0 -516 q29 -62 78.5 -104 q49.5 -42 126.5 -42 q121 0 173 85.5 q52 85.5 52 266.5 l0 101 q0 180 -49 268 q-49 88 -177 88 Z" /><glyph glyph-name="c" unicode="c" d="M508 131 q79 0 136 49.5 q57 49.5 64 161.5 l166 0 q-6 -163 -113 -262.5 q-107 -99.5 -253 -99.5 q-211 0 -311 132 q-100 132 -100 368 l0 122 q0 236 100.5 368 q100.5 132 310.5 132 q165 0 262.5 -103.5 q97.5 -103.5 103.5 -288.5 l-166 0 q-14 240 -200 240 q-140 0 -187 -95 q-47 -95 -47 -253 l0 -122 q0 -159 46.5 -254 q46.5 -95 187.5 -95 Z" /><glyph glyph-name="d" unicode="d" d="M715 0 l-8 117 q-86 -137 -251 -137 q-160 0 -260.5 126 q-100.5 126 -100.5 383 l0 101 q0 267 100 389.5 q100 122.5 263 122.5 q157 0 242 -126 l0 560 l176 0 l0 -1536 l-161 0 ZM272 489 q0 -181 54 -266.5 q54 -85.5 176 -85.5 q75 0 122 37.5 q47 37.5 76 96.5 l0 543 q-30 57 -77.5 94.5 q-47.5 37.5 -118.5 37.5 q-123 0 -177.5 -87.5 q-54.5 -87.5 -54.5 -268.5 l0 -101 Z" /><glyph glyph-name="e" unicode="e" d="M871 143 q-44 -62 -127.5 -112.5 q-83.5 -50.5 -223.5 -50.5 q-195 0 -308 117.5 q-113 117.5 -113 365.5 l0 122 q0 286 124 401.5 q124 115.5 277 115.5 q203 0 291 -131 q88 -131 88 -379 l0 -103 l-603 0 l0 -26 q0 -173 65.5 -252.5 q65.5 -79.5 188.5 -79.5 q89 0 146.5 34.5 q57.5 34.5 101.5 88.5 l93 -111 ZM500 950 q-92 0 -153 -63.5 q-61 -63.5 -70 -246.5 l425 0 l0 25 q-7 125 -46.5 205 q-39.5 80 -155.5 80 Z" /><glyph glyph-name="f" unicode="f" d="M572 940 l-184 0 l0 -940 l-177 0 l0 940 l-141 0 l0 142 l141 0 l0 114 q0 175 83 268 q83 93 227 93 q53 0 107 -16 l-8 -151 q-33 9 -81 9 q-151 0 -151 -203 l0 -114 l184 0 l0 -142 Z" /><glyph glyph-name="g" unicode="g" d="M878 -9 q0 -215 -109 -316.5 q-109 -101.5 -281 -101.5 q-62 0 -165.5 33.5 q-103.5 33.5 -163.5 103.5 l73 123 q57 -58 121 -83 q64 -25 122 -25 q103 0 165 57.5 q62 57.5 62 199.5 l0 126 q-86 -128 -245 -128 q-163 0 -261.5 126 q-98.5 126 -98.5 383 l0 101 q0 267 97.5 389.5 q97.5 122.5 264.5 122.5 q166 0 251 -140 l9 120 l159 0 l0 -1091 ZM274 489 q0 -181 54 -266.5 q54 -85.5 175 -85.5 q76 0 123 38 q47 38 76 98 l0 540 q-30 58 -78 95.5 q-48 37.5 -119 37.5 q-123 0 -177 -87.5 q-54 -87.5 -54 -268.5 l0 -101 Z" /><glyph glyph-name="h" unicode="h" d="M513 946 q-65 0 -117.5 -44 q-52.5 -44 -85.5 -115 l0 -787 l-177 0 l0 1536 l177 0 l0 -563 q102 129 258 129 q133 0 212 -90 q79 -90 79 -303 l0 -709 l-177 0 l0 711 q0 127 -42 181 q-42 54 -127 54 Z" /><glyph glyph-name="i" unicode="i" d="M137 1369 q0 45 25 76 q25 31 75 31 q49 0 75 -31 q26 -31 26 -76 q0 -43 -26 -73.5 q-26 -30.5 -75 -30.5 q-50 0 -75 30.5 q-25 30.5 -25 73.5 ZM323 1082 l0 -1082 l-176 0 l0 1082 l176 0 Z" /><glyph glyph-name="j" unicode="j" d="M121 1369 q0 45 25.5 76 q25.5 31 74.5 31 q50 0 75.5 -31 q25.5 -31 25.5 -76 q0 -43 -25.5 -73.5 q-25.5 -30.5 -75.5 -30.5 q-49 0 -74.5 30.5 q-25.5 30.5 -25.5 73.5 ZM137 1082 l176 0 l0 -1211 q0 -308 -237 -308 q-55 0 -99 17 l0 149 q33 -9 70 -9 q43 0 66.5 34 q23.5 34 23.5 117 l0 1211 Z" /><glyph glyph-name="k" unicode="k" d="M698 0 l-293 497 l-94 -109 l0 -388 l-177 0 l0 1536 l177 0 l0 -917 l78 107 l258 356 l213 0 l-344 -451 l388 -631 l-206 0 Z" /><glyph glyph-name="l" unicode="l" d="M323 1536 l0 -1536 l-176 0 l0 1536 l176 0 Z" /><glyph glyph-name="m" unicode="m" d="M498 946 q-72 0 -117.5 -36 q-45.5 -36 -70.5 -96 l0 -814 l-176 0 l0 1082 l166 0 l5 -98 q97 118 260 118 q82 0 148 -37.5 q66 -37.5 104 -119.5 q46 71 117 114 q71 43 167 43 q148 0 227.5 -93 q79.5 -93 79.5 -298 l0 -711 l-177 0 l0 713 q0 136 -49.5 184.5 q-49.5 48.5 -134.5 48.5 q-82 0 -130.5 -63.5 q-48.5 -63.5 -57.5 -155.5 l0 -6 l0 -721 l-177 0 l0 712 q0 127 -49.5 180.5 q-49.5 53.5 -134.5 53.5 Z" /><glyph glyph-name="n" unicode="n" d="M513 946 q-65 0 -117.5 -44 q-52.5 -44 -85.5 -115 l0 -787 l-177 0 l0 1082 l167 0 l5 -115 q103 135 263 135 q133 0 212 -90 q79 -90 79 -303 l0 -709 l-177 0 l0 711 q0 127 -42 181 q-42 54 -127 54 Z" /><glyph glyph-name="o" unicode="o" d="M96 489 l0 103 q0 253 121 381.5 q121 128.5 296 128.5 q177 0 298.5 -128.5 q121.5 -128.5 121.5 -381.5 l0 -103 q0 -253 -121.5 -381 q-121.5 -128 -296.5 -128 q-176 0 -297.5 128 q-121.5 128 -121.5 381 ZM273 592 l0 -103 q0 -179 69 -268.5 q69 -89.5 173 -89.5 q241 0 241 358 l0 103 q0 177 -69.5 267.5 q-69.5 90.5 -173.5 90.5 q-103 0 -171.5 -90.5 q-68.5 -90.5 -68.5 -267.5 Z" /><glyph glyph-name="p" unicode="p" d="M560 -20 q-162 0 -250 124 l0 -520 l-177 0 l0 1498 l161 0 l9 -118 q88 138 255 138 q173 0 265 -122.5 q92 -122.5 92 -389.5 l0 -101 q0 -257 -92.5 -383 q-92.5 -126 -262.5 -126 ZM503 946 q-68 0 -115.5 -35.5 q-47.5 -35.5 -77.5 -91.5 l0 -564 q29 -54 75.5 -89 q46.5 -35 119.5 -35 q233 0 233 358 l0 101 q0 356 -235 356 Z" /><glyph glyph-name="q" unicode="q" d="M876 1082 l0 -1498 l-177 0 l0 512 q-86 -116 -239 -116 q-170 0 -267.5 126 q-97.5 126 -97.5 383 l0 101 q0 267 97 389.5 q97 122.5 270 122.5 q158 0 244 -126 l8 106 l162 0 ZM272 489 q0 -358 234 -358 q69 0 116 33.5 q47 33.5 77 87.5 l0 578 q-31 52 -78 86 q-47 34 -113 34 q-236 0 -236 -360 l0 -101 Z" /><glyph glyph-name="r" unicode="r" d="M500 924 q-71 0 -118 -40 q-47 -40 -72 -108 l0 -776 l-177 0 l0 1082 l171 0 l4 -109 q71 129 201 129 q47 0 70 -14 l1 -172 q-39 8 -80 8 Z" /><glyph glyph-name="s" unicode="s" d="M658 277 q0 61 -46 102.5 q-46 41.5 -162 91.5 q-151 62 -235 127.5 q-84 65.5 -84 196.5 q0 129 94 218 q94 89 249 89 q166 0 258 -94 q92 -94 92 -234 l-176 0 q0 67 -45 121.5 q-45 54.5 -129 54.5 q-89 0 -127.5 -45 q-38.5 -45 -38.5 -104 q0 -59 38 -91.5 q38 -32.5 151 -82.5 q164 -65 251 -135 q87 -70 87 -201 q0 -143 -98 -227 q-98 -84 -259 -84 q-184 0 -281 105 q-97 105 -97 239 l177 0 q5 -115 69 -153.5 q64 -38.5 132 -38.5 q180 0 180 145 Z" /><glyph glyph-name="t" unicode="t" d="M527 0 q-18 -7 -48 -13.5 q-30 -6.5 -76 -6.5 q-86 0 -150.5 63 q-64.5 63 -64.5 226 l0 671 l-165 0 l0 142 l165 0 l0 263 l177 0 l0 -263 l163 0 l0 -142 l-163 0 l0 -672 q0 -83 28.5 -106 q28.5 -23 64.5 -23 q18 0 40 4.5 q22 4.5 30 7.5 l-1 -151 Z" /><glyph glyph-name="u" unicode="u" d="M689 0 l-3 95 q-90 -115 -258 -115 q-134 0 -216 94 q-82 94 -82 310 l0 698 l176 0 l0 -700 q0 -146 48 -195.5 q48 -49.5 104 -49.5 q87 0 140.5 39.5 q53.5 39.5 81.5 105.5 l0 800 l177 0 l0 -1082 l-168 0 Z" /><glyph glyph-name="v" unicode="v" d="M825 1082 l-321 -1082 l-133 0 l-325 1082 l180 0 l213 -811 l206 811 l180 0 Z" /><glyph glyph-name="w" unicode="w" d="M1278 1082 l-264 -1082 l-141 0 l-212 774 l-205 -774 l-142 0 l-264 1082 l175 0 l168 -750 l201 750 l140 0 l206 -772 l164 772 l174 0 Z" /><glyph glyph-name="x" unicode="x" d="M263 1082 l182 -394 l185 394 l205 0 l-293 -534 l301 -548 l-203 0 l-191 406 l-192 -406 l-204 0 l301 548 l-293 534 l202 0 Z" /><glyph glyph-name="y" unicode="y" d="M456 -167 q-17 -53 -50 -116.5 q-33 -63.5 -88.5 -108.5 q-55.5 -45 -137.5 -45 q-20 0 -49 5.5 q-29 5.5 -42 10.5 l0 150 q16 -4 38 -4 q78 0 122.5 38.5 q44.5 38.5 72.5 138.5 l32 108 l-319 1072 l193 0 l201 -787 l196 787 l188 0 l-357 -1249 Z" /><glyph glyph-name="z" unicode="z" d="M98 929 l0 153 l700 0 l0 -131 l-500 -799 l520 0 l0 -152 l-723 0 l0 136 l495 793 l-492 0 Z" /><glyph glyph-name="braceleft" unicode="{" d="M245 305 q0 109 -40.5 173.5 q-40.5 64.5 -132.5 64.5 l0 145 q92 0 132.5 64 q40.5 64 40.5 173 l0 207 q0 158 65 282.5 q65 124.5 239 182.5 l36 -114 q-95 -37 -129.5 -132.5 q-34.5 -95.5 -34.5 -218.5 l0 -207 q0 -100 -35 -181.5 q-35 -81.5 -112 -128.5 q77 -46 112 -128 q35 -82 35 -182 l0 -206 q0 -123 34.5 -218 q34.5 -95 129.5 -132 l-36 -115 q-174 58 -239 183 q-65 125 -65 282 l0 206 Z" /><glyph glyph-name="bar" unicode="|" d="M325 1456 l0 -1726 l-149 0 l0 1726 l149 0 Z" /><glyph glyph-name="braceright" unicode="}" d="M380 925 q0 -109 41 -173 q41 -64 132 -64 l0 -145 q-91 0 -132 -64.5 q-41 -64.5 -41 -173.5 l0 -206 q0 -157 -64.5 -282 q-64.5 -125 -239.5 -183 l-36 115 q95 37 129.5 132 q34.5 95 34.5 218 l0 206 q0 105 38 186 q38 81 122 124 q-84 43 -122 124.5 q-38 81.5 -38 185.5 l0 207 q0 123 -35 218.5 q-35 95.5 -129 132.5 l36 114 q175 -58 239.5 -182.5 q64.5 -124.5 64.5 -282.5 l0 -207 Z" /><glyph glyph-name="asciitilde" unicode="~" d="M940 777 l144 1 q0 -154 -80 -264.5 q-80 -110.5 -201 -110.5 q-73 0 -129 35 q-56 35 -121 103 q-40 47 -74.5 73 q-34.5 26 -72.5 26 q-62 0 -95 -54 q-33 -54 -33 -148 l-152 -2 q0 157 79.5 262 q79.5 105 200.5 105 q73 0 130.5 -37 q57.5 -37 119.5 -102 q83 -99 147 -99 q61 0 99 59 q38 59 38 153 Z" /><glyph glyph-name="cent" unicode="¢" d="M881 342 q-5 -125 -87 -225 q-82 -100 -201 -128 l0 -234 l-177 0 l0 236 q-160 40 -236 189.5 q-76 149.5 -76 339.5 l0 42 q0 190 76 339.5 q76 149.5 236 189.5 l0 227 l177 0 l0 -224 q130 -26 206.5 -132 q76.5 -106 81.5 -252 l-167 0 q-6 100 -57.5 170 q-51.5 70 -141.5 70 q-93 0 -144 -58 q-51 -58 -70.5 -147 q-19.5 -89 -19.5 -183 l0 -42 q0 -95 19.5 -184 q19.5 -89 70 -146.5 q50.5 -57.5 144.5 -57.5 q79 0 136 59 q57 59 63 151 l167 0 Z" /><glyph glyph-name="sterling" unicode="£" d="M100 0 l0 157 l57 0 q43 13 60 95.5 q17 82.5 17 148.5 l-6 222 l-132 0 l0 157 l127 0 l-7 259 q0 207 110.5 322 q110.5 115 274.5 115 q167 0 260 -107.5 q93 -107.5 93 -281.5 l-183 0 q0 125 -57 178.5 q-57 53.5 -129 53.5 q-76 0 -130.5 -72.5 q-54.5 -72.5 -54.5 -207.5 l7 -259 l260 0 l0 -157 l-255 0 l6 -221 q0 -152 -54 -245 l615 0 l-1 -157 l-878 0 Z" /><glyph glyph-name="yen" unicode="¥" d="M825 322 l-262 0 l0 -322 l-184 0 l0 322 l-255 0 l0 124 l255 0 l0 166 l-255 0 l0 125 l211 0 l-305 719 l207 0 l240 -624 l240 624 l203 0 l-304 -719 l209 0 l0 -125 l-262 0 l0 -1 l0 -165 l262 0 l0 -124 Z" /><glyph glyph-name="dieresis" unicode="¨" d="M101 1371 q0 45 28 76 q28 31 81 31 q54 0 82 -31 q28 -31 28 -76 q0 -43 -28 -73.5 q-28 -30.5 -82 -30.5 q-53 0 -81 30.5 q-28 30.5 -28 73.5 ZM532 1369 q0 45 27.5 76 q27.5 31 81.5 31 q53 0 81.5 -31 q28.5 -31 28.5 -76 q0 -43 -28.5 -73.5 q-28.5 -30.5 -81.5 -30.5 q-54 0 -81.5 30.5 q-27.5 30.5 -27.5 73.5 Z" /><glyph glyph-name="copyright" unicode="©" d="M92 729 q0 211 96 380.5 q96 169.5 257 268 q161 98.5 357 98.5 q196 0 356.5 -98.5 q160.5 -98.5 256.5 -268 q96 -169.5 96 -380.5 q0 -211 -96 -381 q-96 -170 -256.5 -269.5 q-160.5 -99.5 -356.5 -99.5 q-196 0 -357 99.5 q-161 99.5 -257 269.5 q-96 170 -96 381 ZM207 729 q0 -178 80 -321 q80 -143 215.5 -226.5 q135.5 -83.5 299.5 -83.5 q164 0 298.5 83.5 q134.5 83.5 214.5 226.5 q80 143 80 321 q0 178 -80 320 q-80 142 -214.5 225 q-134.5 83 -298.5 83 q-164 0 -299.5 -83 q-135.5 -83 -215.5 -225 q-80 -142 -80 -320 ZM974 598 l146 0 q0 -158 -89.5 -236 q-89.5 -78 -242.5 -78 q-159 0 -252.5 107 q-93.5 107 -93.5 280 l0 115 q0 172 93.5 279.5 q93.5 107.5 252.5 107.5 q153 0 243 -78 q90 -78 90 -235 l-146 0 q0 185 -187 185 q-99 0 -150.5 -72.5 q-51.5 -72.5 -51.5 -185.5 l0 -116 q0 -114 51.5 -186.5 q51.5 -72.5 150.5 -72.5 q92 0 139 43 q47 43 47 143 Z" /><glyph glyph-name="guillemotleft" unicode="«" d="M346 150 l-248 389 l0 19 l248 388 l130 0 l-211 -398 l211 -398 l-130 0 ZM631 150 l-248 389 l0 19 l248 388 l130 0 l-211 -398 l211 -398 l-130 0 Z" /><glyph glyph-name="registered" unicode="®" d="M91 729 q0 211 96 380.5 q96 169.5 257 268 q161 98.5 357 98.5 q195 0 356 -98.5 q161 -98.5 257 -268 q96 -169.5 96 -380.5 q0 -211 -96 -381 q-96 -170 -257 -269.5 q-161 -99.5 -356 -99.5 q-196 0 -357 99.5 q-161 99.5 -257 269.5 q-96 170 -96 381 ZM206 729 q0 -178 80 -321 q80 -143 215 -226.5 q135 -83.5 300 -83.5 q163 0 298 83.5 q135 83.5 215 226.5 q80 143 80 321 q0 178 -80 320 q-80 142 -215 225 q-135 83 -298 83 q-165 0 -300 -83 q-135 -83 -215 -225 q-80 -142 -80 -320 ZM817 655 l-164 0 l0 -338 l-141 0 l0 848 l277 0 q148 0 234.5 -63.5 q86.5 -63.5 86.5 -191.5 q0 -123 -128 -188 q69 -28 96 -82.5 q27 -54.5 27 -125.5 l0 -54 q0 -84 17 -127 l0 -16 l-145 0 q-10 25 -11.5 73.5 q-1.5 48.5 -1.5 70.5 l0 52 q0 142 -147 142 ZM653 1038 l0 -255 l157 0 q63 1 111.5 32 q48.5 31 48.5 89 q0 74 -40 104 q-40 30 -141 30 l-136 0 Z" /><glyph glyph-name="acute" unicode="´" d="M123 1242 l194 294 l223 0 l-268 -294 l-149 0 Z" /><glyph glyph-name="cedilla" unicode="¸" d="M148 0 l124 0 l-10 -53 q46 -10 85 -48 q39 -38 39 -125 q0 -94 -65 -151.5 q-65 -57.5 -192 -57.5 l-6 107 q56 0 92 23 q36 23 36 76 q0 49 -30.5 68 q-30.5 19 -100.5 26 l28 135 Z" /><glyph glyph-name="guillemotright" unicode="»" d="M233 949 l248 -389 l0 -19 l-248 -388 l-131 0 l211 398 l-211 398 l131 0 ZM536 949 l248 -389 l0 -19 l-248 -388 l-131 0 l211 398 l-211 398 l131 0 Z" /><glyph glyph-name="AE" unicode="æ" d="M1617 152 l0 -152 l-763 0 l-13 353 l-459 0 l-168 -353 l-217 0 l740 1456 l828 0 l0 -152 l-581 0 l17 -470 l496 0 l0 -152 l-491 0 l19 -530 l592 0 ZM465 528 l370 0 l-26 723 l-344 -723 Z" /><glyph glyph-name="ae" unicode="æ" d="M1402 102 q-25 -26 -105 -74.5 q-80 -48.5 -217 -48.5 q-112 0 -196.5 46 q-84.5 46 -139.5 127 q-44 -65 -133.5 -119 q-89.5 -54 -228.5 -54 q-145 0 -221.5 88.5 q-76.5 88.5 -76.5 236.5 q0 158 96 245 q96 87 283 87 l176 0 l0 84 q0 107 -43.5 168.5 q-43.5 61.5 -123.5 61.5 q-86 0 -137.5 -56.5 q-51.5 -56.5 -51.5 -133.5 l-176 18 q0 140 101 232 q101 92 264 92 q199 0 285 -153 q111 155 281 153 q185 0 281 -131 q96 -131 96 -355 l0 -118 l-601 0 q4 -154 67.5 -260.5 q63.5 -106.5 198.5 -106.5 q101 0 161.5 36.5 q60.5 36.5 100.5 70.5 l60 -136 ZM1038 950 q-96 0 -152 -88.5 q-56 -88.5 -69 -221.5 l422 0 l0 31 q0 113 -44.5 196 q-44.5 83 -156.5 83 ZM418 130 q57 0 119.5 36 q62.5 36 101.5 83 l0 247 l-174 0 q-100 0 -152.5 -59 q-52.5 -59 -52.5 -137 q0 -71 38 -120.5 q38 -49.5 120 -49.5 Z" /><glyph glyph-name="OE" unicode="&#x152;" d="M1533 157 l0 -157 l-713 0 q-56 -8 -116 -14.5 q-60 -6.5 -123 -6.5 q-211 0 -342.5 166 q-131.5 166 -131.5 431 l0 304 q0 265 130.5 431 q130.5 166 341.5 166 q63 0 124 -6.5 q61 -6.5 117 -14.5 l703 0 l0 -158 l-589 0 l0 -468 l513 0 l0 -157 l-513 0 l0 -516 l599 0 ZM284 576 q0 -218 80.5 -331.5 q80.5 -113.5 216.5 -113.5 q83 0 169 14 l0 1166 q-87 14 -171 14 q-136 0 -215.5 -112.5 q-79.5 -112.5 -79.5 -330.5 l0 -306 Z" /><glyph glyph-name="oe" unicode="&#x153;" d="M1491 113 q-40 -48 -118.5 -91 q-78.5 -43 -204.5 -43 q-111 0 -195.5 51.5 q-84.5 51.5 -138.5 142.5 q-52 -90 -133.5 -142 q-81.5 -52 -189.5 -52 q-194 0 -301 157.5 q-107 157.5 -107 392.5 l0 23 q0 235 106.5 392.5 q106.5 157.5 299.5 157.5 q110 0 193 -53.5 q83 -53.5 135 -145.5 q118 201 303 199 q195 0 285 -135 q90 -135 90 -347 l0 -122 l-587 0 q4 -154 62.5 -260.5 q58.5 -106.5 177.5 -106.5 q89 0 151 31.5 q62 31.5 103 76.5 l69 -126 ZM1140 950 q-80 0 -136 -85.5 q-56 -85.5 -71 -215.5 l405 0 l0 26 q0 109 -46 192 q-46 83 -152 83 ZM279 552 l0 -23 q0 -161 55 -279.5 q55 -118.5 177 -118.5 q121 0 175.5 118.5 q54.5 118.5 54.5 279.5 l0 23 q0 159 -55 278.5 q-55 119.5 -177 119.5 q-121 0 -175.5 -119.5 q-54.5 -119.5 -54.5 -278.5 Z" /><glyph glyph-name="circumflex" unicode="&#x2c6;" d="M480 1536 l210 -273 l0 -10 l-143 0 l-120 169 l-119 -169 l-142 0 l0 11 l208 272 l106 0 Z" /><glyph glyph-name="ring" unicode="&#x2da;" d="M121 1409 q0 86 61.5 147 q61.5 61 153.5 61 q91 0 153 -61 q62 -61 62 -147 q0 -88 -62 -146 q-62 -58 -153 -58 q-92 0 -153.5 58 q-61.5 58 -61.5 146 ZM220 1409 q0 -44 32.5 -79.5 q32.5 -35.5 83.5 -35.5 q51 0 83.5 34.5 q32.5 34.5 32.5 80.5 q0 47 -32.5 82.5 q-32.5 35.5 -83.5 35.5 q-51 0 -83.5 -35.5 q-32.5 -35.5 -32.5 -82.5 Z" /><glyph glyph-name="tilde" unicode="&#x2dc;" d="M619 1512 l115 -11 q0 -110 -54.5 -176.5 q-54.5 -66.5 -132.5 -66.5 q-57 0 -88.5 24 q-31.5 24 -60 47.5 q-28.5 23.5 -74.5 23.5 q-34 0 -57 -32 q-23 -32 -23 -79 l-115 6 q0 110 53.5 178.5 q53.5 68.5 132.5 68.5 q69 0 113 -47.5 q44 -47.5 110 -47.5 q34 0 57.5 32.5 q23.5 32.5 23.5 79.5 Z" /><glyph glyph-name="endash" unicode="&#x2013;" d="M1003 803 l0 -152 l-843 0 l0 152 l843 0 Z" /><glyph glyph-name="emdash" unicode="&#x2014;" d="M1281 803 l0 -152 l-1123 0 l0 152 l1123 0 Z" /><glyph glyph-name="quoteleft" unicode="&#x2018;" d="M100 1073 l0 121 q0 91 41 192.5 q41 101.5 117 169.5 l99 -73 q-40 -66 -61 -135.5 q-21 -69.5 -21 -150.5 l0 -124 l-175 0 Z" /><glyph glyph-name="quoteright" unicode="&#x2019;" d="M313 1536 l0 -128 q0 -91 -41 -192.5 q-41 -101.5 -117 -169.5 l-99 73 q40 66 61 135.5 q21 69.5 21 150.5 l0 131 l175 0 Z" /><glyph glyph-name="quotesinglbase" unicode="&#x201a;" d="M306 182 l0 -103 q0 -91 -41 -192.5 q-41 -101.5 -117 -169.5 l-99 72 q80 133 80 287 l0 106 l177 0 Z" /><glyph glyph-name="quotedblleft" unicode="&#x201c;" d="M109 1073 l0 121 q0 91 41 192.5 q41 101.5 117 169.5 l99 -73 q-40 -66 -61 -135.5 q-21 -69.5 -21 -150.5 l0 -124 l-175 0 ZM394 1073 l0 121 q0 91 41 192.5 q41 101.5 117 169.5 l99 -73 q-40 -66 -61 -135.5 q-21 -69.5 -21 -150.5 l0 -124 l-175 0 Z" /><glyph glyph-name="quotedblright" unicode="&#x201d;" d="M325 1536 l0 -128 q0 -91 -41 -192.5 q-41 -101.5 -117 -169.5 l-99 73 q40 66 61 135.5 q21 69.5 21 150.5 l0 131 l175 0 ZM603 1536 l0 -128 q0 -91 -41 -192.5 q-41 -101.5 -117 -169.5 l-99 73 q40 66 61 135.5 q21 69.5 21 150.5 l0 131 l175 0 Z" /><glyph glyph-name="quotedblbase" unicode="&#x201e;" d="M306 246 l0 -167 q0 -96 -41 -202.5 q-41 -106.5 -117 -178.5 l-99 73 q80 142 80 305 l0 170 l177 0 ZM574 246 l0 -167 q0 -96 -40.5 -202.5 q-40.5 -106.5 -116.5 -178.5 l-100 73 q81 141 81 305 l0 170 l176 0 Z" /><glyph glyph-name="ellipsis" unicode="&#x2026;" d="M142 98 q0 47 29.5 79.5 q29.5 32.5 85.5 32.5 q56 0 85.5 -32.5 q29.5 -32.5 29.5 -79.5 q0 -46 -29.5 -78 q-29.5 -32 -85.5 -32 q-56 0 -85.5 32 q-29.5 32 -29.5 78 ZM517 98 q0 47 29.5 79.5 q29.5 32.5 85.5 32.5 q56 0 85.5 -32.5 q29.5 -32.5 29.5 -79.5 q0 -46 -29.5 -78 q-29.5 -32 -85.5 -32 q-56 0 -85.5 32 q-29.5 32 -29.5 78 ZM873 98 q0 47 29.5 79.5 q29.5 32.5 85.5 32.5 q56 0 85.5 -32.5 q29.5 -32.5 29.5 -79.5 q0 -46 -29.5 -78 q-29.5 -32 -85.5 -32 q-56 0 -85.5 32 q-29.5 32 -29.5 78 Z" /><glyph glyph-name="guilsinglleft" unicode="&#x2039;" d="M359 153 l-248 389 l0 19 l248 388 l130 0 l-211 -398 l211 -398 l-130 0 Z" /><glyph glyph-name="guilsinglright" unicode="&#x203a;" d="M224 949 l248 -389 l0 -19 l-248 -388 l-131 0 l211 398 l-211 398 l131 0 Z" /><glyph glyph-name="Euro" unicode="&#x20ac;" d="M908 10 q-101 -30 -205 -30 q-197 0 -323 140.5 q-126 140.5 -131 421.5 l-145 0 l0 124 l145 0 l0 136 l-145 0 l0 125 l145 0 q8 274 133 411.5 q125 137.5 320 137.5 q54 0 104 -8.5 q50 -8.5 102 -22.5 l-20 -161 q-42 16 -88.5 25.5 q-46.5 9.5 -95.5 9.5 q-121 0 -193 -96 q-72 -96 -78 -296 l311 0 l0 -125 l-311 0 l0 -136 l311 0 l0 -124 l-311 0 q4 -207 77.5 -306.5 q73.5 -99.5 194.5 -99.5 q96 0 183 34 l20 -160 Z" /><glyph glyph-name="trademark" unicode="&#x2122;" d="M846 919 l0 395 l-114 -395 l-43 0 l-114 394 l0 -394 l-81 0 l0 537 l101 0 l115 -398 l116 398 l101 0 l0 -537 l-81 0 ZM429 1456 l0 -81 l-121 0 l0 -456 l-82 0 l0 456 l-120 0 l0 81 l323 0 Z" /><glyph glyph-name="Agrave" unicode="à" d="M43 0 l469 1456 l158 0 l469 -1456 l-188 0 l-114 381 l-492 0 l-114 -381 l-188 0 ZM393 539 l396 0 l-198 661 l-198 -661 ZM506 1847 l193 -294 l-159 0 l-258 294 l224 0 Z" /><glyph glyph-name="Aacute" unicode="á" d="M43 0 l469 1456 l158 0 l469 -1456 l-188 0 l-114 381 l-492 0 l-114 -381 l-188 0 ZM393 539 l396 0 l-198 661 l-198 -661 ZM492 1553 l194 294 l223 0 l-268 -294 l-149 0 Z" /><glyph glyph-name="Acircumflex" unicode="â" d="M43 0 l469 1456 l158 0 l469 -1456 l-188 0 l-114 381 l-492 0 l-114 -381 l-188 0 ZM393 539 l396 0 l-198 661 l-198 -661 ZM647 1847 l210 -273 l0 -10 l-143 0 l-120 169 l-119 -169 l-142 0 l0 11 l208 272 l106 0 Z" /><glyph glyph-name="Adieresis" unicode="ä" d="M43 0 l469 1456 l158 0 l469 -1456 l-188 0 l-114 381 l-492 0 l-114 -381 l-188 0 ZM393 539 l396 0 l-198 661 l-198 -661 ZM272 1682 q0 45 28 76 q28 31 81 31 q54 0 82 -31 q28 -31 28 -76 q0 -43 -28 -73.5 q-28 -30.5 -82 -30.5 q-53 0 -81 30.5 q-28 30.5 -28 73.5 ZM703 1680 q0 45 27.5 76 q27.5 31 81.5 31 q53 0 81.5 -31 q28.5 -31 28.5 -76 q0 -43 -28.5 -73.5 q-28.5 -30.5 -81.5 -30.5 q-54 0 -81.5 30.5 q-27.5 30.5 -27.5 73.5 Z" /><glyph glyph-name="Ccedilla" unicode="ç" d="M886 463 l184 0 q-10 -225 -126 -354 q-116 -129 -343 -129 q-219 0 -347.5 166.5 q-128.5 166.5 -128.5 447.5 l0 269 q0 280 130.5 446.5 q130.5 166.5 362.5 166.5 q212 0 327 -126 q115 -126 125 -361 l-184 0 q-11 172 -72 250.5 q-61 78.5 -196 78.5 q-160 0 -234.5 -124 q-74.5 -124 -74.5 -329 l0 -271 q0 -191 65.5 -324 q65.5 -133 226.5 -133 q151 0 211 76 q60 76 74 250 ZM534 -10 l124 0 l-10 -53 q46 -10 85 -48 q39 -38 39 -125 q0 -94 -65 -151.5 q-65 -57.5 -192 -57.5 l-6 107 q56 0 92 23 q36 23 36 76 q0 49 -30.5 68 q-30.5 19 -100.5 26 l28 135 Z" /><glyph glyph-name="Egrave" unicode="è" d="M157 0 l0 1456 l773 0 l0 -158 l-589 0 l0 -468 l514 0 l0 -157 l-514 0 l0 -516 l599 0 l0 -157 l-783 0 ZM452 1858 l193 -294 l-159 0 l-258 294 l224 0 Z" /><glyph glyph-name="Eacute" unicode="é" d="M157 0 l0 1456 l773 0 l0 -158 l-589 0 l0 -468 l514 0 l0 -157 l-514 0 l0 -516 l599 0 l0 -157 l-783 0 ZM438 1564 l194 294 l223 0 l-268 -294 l-149 0 Z" /><glyph glyph-name="Ecircumflex" unicode="ê" d="M157 0 l0 1456 l773 0 l0 -158 l-589 0 l0 -468 l514 0 l0 -157 l-514 0 l0 -516 l599 0 l0 -157 l-783 0 ZM593 1858 l210 -273 l0 -10 l-143 0 l-120 169 l-119 -169 l-142 0 l0 11 l208 272 l106 0 Z" /><glyph glyph-name="Edieresis" unicode="ë" d="M157 0 l0 1456 l773 0 l0 -158 l-589 0 l0 -468 l514 0 l0 -157 l-514 0 l0 -516 l599 0 l0 -157 l-783 0 ZM218 1693 q0 45 28 76 q28 31 81 31 q54 0 82 -31 q28 -31 28 -76 q0 -43 -28 -73.5 q-28 -30.5 -82 -30.5 q-53 0 -81 30.5 q-28 30.5 -28 73.5 ZM649 1691 q0 45 27.5 76 q27.5 31 81.5 31 q53 0 81.5 -31 q28.5 -31 28.5 -76 q0 -43 -28.5 -73.5 q-28.5 -30.5 -81.5 -30.5 q-54 0 -81.5 30.5 q-27.5 30.5 -27.5 73.5 Z" /><glyph glyph-name="Igrave" unicode="ì" d="M349 1456 l0 -1456 l-184 0 l0 1456 l184 0 ZM168 1858 l193 -294 l-159 0 l-258 294 l224 0 Z" /><glyph glyph-name="Iacute" unicode="í" d="M349 1456 l0 -1456 l-184 0 l0 1456 l184 0 ZM154 1564 l194 294 l223 0 l-268 -294 l-149 0 Z" /><glyph glyph-name="Icircumflex" unicode="î" d="M349 1456 l0 -1456 l-184 0 l0 1456 l184 0 ZM309 1858 l210 -273 l0 -10 l-143 0 l-120 169 l-119 -169 l-142 0 l0 11 l208 272 l106 0 Z" /><glyph glyph-name="Idieresis" unicode="ï" d="M349 1456 l0 -1456 l-184 0 l0 1456 l184 0 ZM-66 1693 q0 45 28 76 q28 31 81 31 q54 0 82 -31 q28 -31 28 -76 q0 -43 -28 -73.5 q-28 -30.5 -82 -30.5 q-53 0 -81 30.5 q-28 30.5 -28 73.5 ZM365 1691 q0 45 27.5 76 q27.5 31 81.5 31 q53 0 81.5 -31 q28.5 -31 28.5 -76 q0 -43 -28.5 -73.5 q-28.5 -30.5 -81.5 -30.5 q-54 0 -81.5 30.5 q-27.5 30.5 -27.5 73.5 Z" /><glyph glyph-name="Ograve" unicode="ò" d="M1104 854 l0 -253 q0 -309 -131 -465 q-131 -156 -357 -156 q-218 0 -354 156 q-136 156 -136 465 l0 253 q0 308 135 465 q135 157 354 157 q226 0 357.5 -157 q131.5 -157 131.5 -465 ZM922 601 l0 255 q0 240 -79 348 q-79 108 -228 108 q-142 0 -224.5 -108 q-82.5 -108 -82.5 -348 l0 -255 q0 -241 83.5 -349.5 q83.5 -108.5 224.5 -108.5 q151 0 228.5 108.5 q77.5 108.5 77.5 349.5 ZM530 1849 l193 -294 l-159 0 l-258 294 l224 0 Z" /><glyph glyph-name="Oacute" unicode="ó" d="M1104 854 l0 -253 q0 -309 -131 -465 q-131 -156 -357 -156 q-218 0 -354 156 q-136 156 -136 465 l0 253 q0 308 135 465 q135 157 354 157 q226 0 357.5 -157 q131.5 -157 131.5 -465 ZM922 601 l0 255 q0 240 -79 348 q-79 108 -228 108 q-142 0 -224.5 -108 q-82.5 -108 -82.5 -348 l0 -255 q0 -241 83.5 -349.5 q83.5 -108.5 224.5 -108.5 q151 0 228.5 108.5 q77.5 108.5 77.5 349.5 ZM516 1555 l194 294 l223 0 l-268 -294 l-149 0 Z" /><glyph glyph-name="Ocircumflex" unicode="ô" d="M1104 854 l0 -253 q0 -309 -131 -465 q-131 -156 -357 -156 q-218 0 -354 156 q-136 156 -136 465 l0 253 q0 308 135 465 q135 157 354 157 q226 0 357.5 -157 q131.5 -157 131.5 -465 ZM922 601 l0 255 q0 240 -79 348 q-79 108 -228 108 q-142 0 -224.5 -108 q-82.5 -108 -82.5 -348 l0 -255 q0 -241 83.5 -349.5 q83.5 -108.5 224.5 -108.5 q151 0 228.5 108.5 q77.5 108.5 77.5 349.5 ZM671 1849 l210 -273 l0 -10 l-143 0 l-120 169 l-119 -169 l-142 0 l0 11 l208 272 l106 0 Z" /><glyph glyph-name="Odieresis" unicode="ö" d="M1104 854 l0 -253 q0 -309 -131 -465 q-131 -156 -357 -156 q-218 0 -354 156 q-136 156 -136 465 l0 253 q0 308 135 465 q135 157 354 157 q226 0 357.5 -157 q131.5 -157 131.5 -465 ZM922 601 l0 255 q0 240 -79 348 q-79 108 -228 108 q-142 0 -224.5 -108 q-82.5 -108 -82.5 -348 l0 -255 q0 -241 83.5 -349.5 q83.5 -108.5 224.5 -108.5 q151 0 228.5 108.5 q77.5 108.5 77.5 349.5 ZM296 1684 q0 45 28 76 q28 31 81 31 q54 0 82 -31 q28 -31 28 -76 q0 -43 -28 -73.5 q-28 -30.5 -82 -30.5 q-53 0 -81 30.5 q-28 30.5 -28 73.5 ZM727 1682 q0 45 27.5 76 q27.5 31 81.5 31 q53 0 81.5 -31 q28.5 -31 28.5 -76 q0 -43 -28.5 -73.5 q-28.5 -30.5 -81.5 -30.5 q-54 0 -81.5 30.5 q-27.5 30.5 -27.5 73.5 Z" /><glyph glyph-name="Ugrave" unicode="ù" d="M842 1456 l184 0 l0 -1025 q0 -246 -136 -348.5 q-136 -102.5 -313 -102.5 q-189 0 -318 102.5 q-129 102.5 -129 348.5 l0 1025 l183 0 l0 -1025 q0 -171 72 -232.5 q72 -61.5 192 -61.5 q121 0 193 61.5 q72 61.5 72 232.5 l0 1025 ZM488 1847 l193 -294 l-159 0 l-258 294 l224 0 Z" /><glyph glyph-name="Uacute" unicode="ú" d="M842 1456 l184 0 l0 -1025 q0 -246 -136 -348.5 q-136 -102.5 -313 -102.5 q-189 0 -318 102.5 q-129 102.5 -129 348.5 l0 1025 l183 0 l0 -1025 q0 -171 72 -232.5 q72 -61.5 192 -61.5 q121 0 193 61.5 q72 61.5 72 232.5 l0 1025 ZM474 1553 l194 294 l223 0 l-268 -294 l-149 0 Z" /><glyph glyph-name="Ucircumflex" unicode="û" d="M842 1456 l184 0 l0 -1025 q0 -246 -136 -348.5 q-136 -102.5 -313 -102.5 q-189 0 -318 102.5 q-129 102.5 -129 348.5 l0 1025 l183 0 l0 -1025 q0 -171 72 -232.5 q72 -61.5 192 -61.5 q121 0 193 61.5 q72 61.5 72 232.5 l0 1025 ZM629 1847 l210 -273 l0 -10 l-143 0 l-120 169 l-119 -169 l-142 0 l0 11 l208 272 l106 0 Z" /><glyph glyph-name="Udieresis" unicode="ü" d="M842 1456 l184 0 l0 -1025 q0 -246 -136 -348.5 q-136 -102.5 -313 -102.5 q-189 0 -318 102.5 q-129 102.5 -129 348.5 l0 1025 l183 0 l0 -1025 q0 -171 72 -232.5 q72 -61.5 192 -61.5 q121 0 193 61.5 q72 61.5 72 232.5 l0 1025 ZM254 1682 q0 45 28 76 q28 31 81 31 q54 0 82 -31 q28 -31 28 -76 q0 -43 -28 -73.5 q-28 -30.5 -82 -30.5 q-53 0 -81 30.5 q-28 30.5 -28 73.5 ZM685 1680 q0 45 27.5 76 q27.5 31 81.5 31 q53 0 81.5 -31 q28.5 -31 28.5 -76 q0 -43 -28.5 -73.5 q-28.5 -30.5 -81.5 -30.5 q-54 0 -81.5 30.5 q-27.5 30.5 -27.5 73.5 Z" /><glyph glyph-name="Yacute" unicode="ý" d="M239 1456 l297 -731 l298 731 l208 0 l-414 -912 l0 -544 l-184 0 l0 544 l-414 912 l209 0 ZM439 1552 l194 294 l223 0 l-268 -294 l-149 0 Z" /><glyph glyph-name="agrave" unicode="à" d="M690 0 q-17 39 -24 117 q-37 -55 -98 -96 q-61 -41 -141 -41 q-142 0 -227.5 80 q-85.5 80 -85.5 235 q0 156 107 258.5 q107 102.5 320 102.5 l122 0 l0 116 q0 96 -43.5 137 q-43.5 41 -130.5 41 q-85 0 -132.5 -50 q-47.5 -50 -47.5 -118 l-177 0 q0 116 99 218 q99 102 267 102 q150 0 246 -75 q96 -75 96 -257 l0 -534 q0 -54 8 -115 q8 -61 25 -105 l0 -16 l-183 0 ZM454 141 q75 0 130 39 q55 39 79 87 l0 259 l-93 0 q-127 0 -203 -54 q-76 -54 -76 -155 q0 -97 40.5 -136.5 q40.5 -39.5 122.5 -39.5 ZM421 1536 l193 -294 l-159 0 l-258 294 l224 0 Z" /><glyph glyph-name="acircumflex" unicode="â" d="M690 0 q-17 39 -24 117 q-37 -55 -98 -96 q-61 -41 -141 -41 q-142 0 -227.5 80 q-85.5 80 -85.5 235 q0 156 107 258.5 q107 102.5 320 102.5 l122 0 l0 116 q0 96 -43.5 137 q-43.5 41 -130.5 41 q-85 0 -132.5 -50 q-47.5 -50 -47.5 -118 l-177 0 q0 116 99 218 q99 102 267 102 q150 0 246 -75 q96 -75 96 -257 l0 -534 q0 -54 8 -115 q8 -61 25 -105 l0 -16 l-183 0 ZM454 141 q75 0 130 39 q55 39 79 87 l0 259 l-93 0 q-127 0 -203 -54 q-76 -54 -76 -155 q0 -97 40.5 -136.5 q40.5 -39.5 122.5 -39.5 ZM562 1536 l210 -273 l0 -10 l-143 0 l-120 169 l-119 -169 l-142 0 l0 11 l208 272 l106 0 Z" /><glyph glyph-name="adieresis" unicode="ä" d="M690 0 q-17 39 -24 117 q-37 -55 -98 -96 q-61 -41 -141 -41 q-142 0 -227.5 80 q-85.5 80 -85.5 235 q0 156 107 258.5 q107 102.5 320 102.5 l122 0 l0 116 q0 96 -43.5 137 q-43.5 41 -130.5 41 q-85 0 -132.5 -50 q-47.5 -50 -47.5 -118 l-177 0 q0 116 99 218 q99 102 267 102 q150 0 246 -75 q96 -75 96 -257 l0 -534 q0 -54 8 -115 q8 -61 25 -105 l0 -16 l-183 0 ZM454 141 q75 0 130 39 q55 39 79 87 l0 259 l-93 0 q-127 0 -203 -54 q-76 -54 -76 -155 q0 -97 40.5 -136.5 q40.5 -39.5 122.5 -39.5 ZM187 1371 q0 45 28 76 q28 31 81 31 q54 0 82 -31 q28 -31 28 -76 q0 -43 -28 -73.5 q-28 -30.5 -82 -30.5 q-53 0 -81 30.5 q-28 30.5 -28 73.5 ZM618 1369 q0 45 27.5 76 q27.5 31 81.5 31 q53 0 81.5 -31 q28.5 -31 28.5 -76 q0 -43 -28.5 -73.5 q-28.5 -30.5 -81.5 -30.5 q-54 0 -81.5 30.5 q-27.5 30.5 -27.5 73.5 Z" /><glyph glyph-name="ccedilla" unicode="ç" d="M508 131 q79 0 136 49.5 q57 49.5 64 161.5 l166 0 q-6 -163 -113 -262.5 q-107 -99.5 -253 -99.5 q-211 0 -311 132 q-100 132 -100 368 l0 122 q0 236 100.5 368 q100.5 132 310.5 132 q165 0 262.5 -103.5 q97.5 -103.5 103.5 -288.5 l-166 0 q-14 240 -200 240 q-140 0 -187 -95 q-47 -95 -47 -253 l0 -122 q0 -159 46.5 -254 q46.5 -95 187.5 -95 ZM408 -10 l124 0 l-10 -53 q46 -10 85 -48 q39 -38 39 -125 q0 -94 -65 -151.5 q-65 -57.5 -192 -57.5 l-6 107 q56 0 92 23 q36 23 36 76 q0 49 -30.5 68 q-30.5 19 -100.5 26 l28 135 Z" /><glyph glyph-name="egrave" unicode="è" d="M871 143 q-44 -62 -127.5 -112.5 q-83.5 -50.5 -223.5 -50.5 q-195 0 -308 117.5 q-113 117.5 -113 365.5 l0 122 q0 286 124 401.5 q124 115.5 277 115.5 q203 0 291 -131 q88 -131 88 -379 l0 -103 l-603 0 l0 -26 q0 -173 65.5 -252.5 q65.5 -79.5 188.5 -79.5 q89 0 146.5 34.5 q57.5 34.5 101.5 88.5 l93 -111 ZM500 950 q-92 0 -153 -63.5 q-61 -63.5 -70 -246.5 l425 0 l0 25 q-7 125 -46.5 205 q-39.5 80 -155.5 80 ZM406 1536 l193 -294 l-159 0 l-258 294 l224 0 Z" /><glyph glyph-name="eacute" unicode="é" d="M871 143 q-44 -62 -127.5 -112.5 q-83.5 -50.5 -223.5 -50.5 q-195 0 -308 117.5 q-113 117.5 -113 365.5 l0 122 q0 286 124 401.5 q124 115.5 277 115.5 q203 0 291 -131 q88 -131 88 -379 l0 -103 l-603 0 l0 -26 q0 -173 65.5 -252.5 q65.5 -79.5 188.5 -79.5 q89 0 146.5 34.5 q57.5 34.5 101.5 88.5 l93 -111 ZM500 950 q-92 0 -153 -63.5 q-61 -63.5 -70 -246.5 l425 0 l0 25 q-7 125 -46.5 205 q-39.5 80 -155.5 80 ZM392 1242 l194 294 l223 0 l-268 -294 l-149 0 Z" /><glyph glyph-name="ecircumflex" unicode="ê" d="M871 143 q-44 -62 -127.5 -112.5 q-83.5 -50.5 -223.5 -50.5 q-195 0 -308 117.5 q-113 117.5 -113 365.5 l0 122 q0 286 124 401.5 q124 115.5 277 115.5 q203 0 291 -131 q88 -131 88 -379 l0 -103 l-603 0 l0 -26 q0 -173 65.5 -252.5 q65.5 -79.5 188.5 -79.5 q89 0 146.5 34.5 q57.5 34.5 101.5 88.5 l93 -111 ZM500 950 q-92 0 -153 -63.5 q-61 -63.5 -70 -246.5 l425 0 l0 25 q-7 125 -46.5 205 q-39.5 80 -155.5 80 ZM547 1536 l210 -273 l0 -10 l-143 0 l-120 169 l-119 -169 l-142 0 l0 11 l208 272 l106 0 Z" /><glyph glyph-name="edieresis" unicode="ë" d="M871 143 q-44 -62 -127.5 -112.5 q-83.5 -50.5 -223.5 -50.5 q-195 0 -308 117.5 q-113 117.5 -113 365.5 l0 122 q0 286 124 401.5 q124 115.5 277 115.5 q203 0 291 -131 q88 -131 88 -379 l0 -103 l-603 0 l0 -26 q0 -173 65.5 -252.5 q65.5 -79.5 188.5 -79.5 q89 0 146.5 34.5 q57.5 34.5 101.5 88.5 l93 -111 ZM500 950 q-92 0 -153 -63.5 q-61 -63.5 -70 -246.5 l425 0 l0 25 q-7 125 -46.5 205 q-39.5 80 -155.5 80 ZM172 1371 q0 45 28 76 q28 31 81 31 q54 0 82 -31 q28 -31 28 -76 q0 -43 -28 -73.5 q-28 -30.5 -82 -30.5 q-53 0 -81 30.5 q-28 30.5 -28 73.5 ZM603 1369 q0 45 27.5 76 q27.5 31 81.5 31 q53 0 81.5 -31 q28.5 -31 28.5 -76 q0 -43 -28.5 -73.5 q-28.5 -30.5 -81.5 -30.5 q-54 0 -81.5 30.5 q-27.5 30.5 -27.5 73.5 Z" /><glyph glyph-name="igrave" unicode="ì" d="M324 1082 l0 -1082 l-177 0 l0 1082 l177 0 ZM151 1534 l193 -294 l-159 0 l-258 294 l224 0 Z" /><glyph glyph-name="iacute" unicode="í" d="M324 1082 l0 -1082 l-177 0 l0 1082 l177 0 ZM137 1240 l194 294 l223 0 l-268 -294 l-149 0 Z" /><glyph glyph-name="icircumflex" unicode="î" d="M324 1082 l0 -1082 l-177 0 l0 1082 l177 0 ZM292 1534 l210 -273 l0 -10 l-143 0 l-120 169 l-119 -169 l-142 0 l0 11 l208 272 l106 0 Z" /><glyph glyph-name="idieresis" unicode="ï" d="M324 1082 l0 -1082 l-177 0 l0 1082 l177 0 ZM-83 1369 q0 45 28 76 q28 31 81 31 q54 0 82 -31 q28 -31 28 -76 q0 -43 -28 -73.5 q-28 -30.5 -82 -30.5 q-53 0 -81 30.5 q-28 30.5 -28 73.5 ZM348 1367 q0 45 27.5 76 q27.5 31 81.5 31 q53 0 81.5 -31 q28.5 -31 28.5 -76 q0 -43 -28.5 -73.5 q-28.5 -30.5 -81.5 -30.5 q-54 0 -81.5 30.5 q-27.5 30.5 -27.5 73.5 Z" /><glyph glyph-name="ograve" unicode="ò" d="M96 489 l0 103 q0 253 121 381.5 q121 128.5 296 128.5 q177 0 298.5 -128.5 q121.5 -128.5 121.5 -381.5 l0 -103 q0 -253 -121.5 -381 q-121.5 -128 -296.5 -128 q-176 0 -297.5 128 q-121.5 128 -121.5 381 ZM273 592 l0 -103 q0 -179 69 -268.5 q69 -89.5 173 -89.5 q241 0 241 358 l0 103 q0 177 -69.5 267.5 q-69.5 90.5 -173.5 90.5 q-103 0 -171.5 -90.5 q-68.5 -90.5 -68.5 -267.5 ZM416 1536 l193 -294 l-159 0 l-258 294 l224 0 Z" /><glyph glyph-name="oacute" unicode="ó" d="M96 489 l0 103 q0 253 121 381.5 q121 128.5 296 128.5 q177 0 298.5 -128.5 q121.5 -128.5 121.5 -381.5 l0 -103 q0 -253 -121.5 -381 q-121.5 -128 -296.5 -128 q-176 0 -297.5 128 q-121.5 128 -121.5 381 ZM273 592 l0 -103 q0 -179 69 -268.5 q69 -89.5 173 -89.5 q241 0 241 358 l0 103 q0 177 -69.5 267.5 q-69.5 90.5 -173.5 90.5 q-103 0 -171.5 -90.5 q-68.5 -90.5 -68.5 -267.5 ZM402 1242 l194 294 l223 0 l-268 -294 l-149 0 Z" /><glyph glyph-name="ocircumflex" unicode="ô" d="M96 489 l0 103 q0 253 121 381.5 q121 128.5 296 128.5 q177 0 298.5 -128.5 q121.5 -128.5 121.5 -381.5 l0 -103 q0 -253 -121.5 -381 q-121.5 -128 -296.5 -128 q-176 0 -297.5 128 q-121.5 128 -121.5 381 ZM273 592 l0 -103 q0 -179 69 -268.5 q69 -89.5 173 -89.5 q241 0 241 358 l0 103 q0 177 -69.5 267.5 q-69.5 90.5 -173.5 90.5 q-103 0 -171.5 -90.5 q-68.5 -90.5 -68.5 -267.5 ZM557 1536 l210 -273 l0 -10 l-143 0 l-120 169 l-119 -169 l-142 0 l0 11 l208 272 l106 0 Z" /><glyph glyph-name="odieresis" unicode="ö" d="M96 489 l0 103 q0 253 121 381.5 q121 128.5 296 128.5 q177 0 298.5 -128.5 q121.5 -128.5 121.5 -381.5 l0 -103 q0 -253 -121.5 -381 q-121.5 -128 -296.5 -128 q-176 0 -297.5 128 q-121.5 128 -121.5 381 ZM273 592 l0 -103 q0 -179 69 -268.5 q69 -89.5 173 -89.5 q241 0 241 358 l0 103 q0 177 -69.5 267.5 q-69.5 90.5 -173.5 90.5 q-103 0 -171.5 -90.5 q-68.5 -90.5 -68.5 -267.5 ZM182 1371 q0 45 28 76 q28 31 81 31 q54 0 82 -31 q28 -31 28 -76 q0 -43 -28 -73.5 q-28 -30.5 -82 -30.5 q-53 0 -81 30.5 q-28 30.5 -28 73.5 ZM613 1369 q0 45 27.5 76 q27.5 31 81.5 31 q53 0 81.5 -31 q28.5 -31 28.5 -76 q0 -43 -28.5 -73.5 q-28.5 -30.5 -81.5 -30.5 q-54 0 -81.5 30.5 q-27.5 30.5 -27.5 73.5 Z" /><glyph glyph-name="ugrave" unicode="ù" d="M689 0 l-3 95 q-90 -115 -258 -115 q-134 0 -216 94 q-82 94 -82 310 l0 698 l176 0 l0 -700 q0 -146 48 -195.5 q48 -49.5 104 -49.5 q87 0 140.5 39.5 q53.5 39.5 81.5 105.5 l0 800 l177 0 l0 -1082 l-168 0 ZM407 1536 l193 -294 l-159 0 l-258 294 l224 0 Z" /><glyph glyph-name="uacute" unicode="ú" d="M689 0 l-3 95 q-90 -115 -258 -115 q-134 0 -216 94 q-82 94 -82 310 l0 698 l176 0 l0 -700 q0 -146 48 -195.5 q48 -49.5 104 -49.5 q87 0 140.5 39.5 q53.5 39.5 81.5 105.5 l0 800 l177 0 l0 -1082 l-168 0 ZM393 1242 l194 294 l223 0 l-268 -294 l-149 0 Z" /><glyph glyph-name="ucircumflex" unicode="û" d="M689 0 l-3 95 q-90 -115 -258 -115 q-134 0 -216 94 q-82 94 -82 310 l0 698 l176 0 l0 -700 q0 -146 48 -195.5 q48 -49.5 104 -49.5 q87 0 140.5 39.5 q53.5 39.5 81.5 105.5 l0 800 l177 0 l0 -1082 l-168 0 ZM548 1536 l210 -273 l0 -10 l-143 0 l-120 169 l-119 -169 l-142 0 l0 11 l208 272 l106 0 Z" /><glyph glyph-name="udieresis" unicode="ü" d="M689 0 l-3 95 q-90 -115 -258 -115 q-134 0 -216 94 q-82 94 -82 310 l0 698 l176 0 l0 -700 q0 -146 48 -195.5 q48 -49.5 104 -49.5 q87 0 140.5 39.5 q53.5 39.5 81.5 105.5 l0 800 l177 0 l0 -1082 l-168 0 ZM173 1371 q0 45 28 76 q28 31 81 31 q54 0 82 -31 q28 -31 28 -76 q0 -43 -28 -73.5 q-28 -30.5 -82 -30.5 q-53 0 -81 30.5 q-28 30.5 -28 73.5 ZM604 1369 q0 45 27.5 76 q27.5 31 81.5 31 q53 0 81.5 -31 q28.5 -31 28.5 -76 q0 -43 -28.5 -73.5 q-28.5 -30.5 -81.5 -30.5 q-54 0 -81.5 30.5 q-27.5 30.5 -27.5 73.5 Z" /><glyph glyph-name="yacute" unicode="ý" d="M456 -167 q-17 -53 -50 -116.5 q-33 -63.5 -88.5 -108.5 q-55.5 -45 -137.5 -45 q-20 0 -49 5.5 q-29 5.5 -42 10.5 l0 150 q16 -4 38 -4 q78 0 122.5 38.5 q44.5 38.5 72.5 138.5 l32 108 l-319 1072 l193 0 l201 -787 l196 787 l188 0 l-357 -1249 ZM343 1242 l194 294 l223 0 l-268 -294 l-149 0 Z" /><glyph glyph-name="ydieresis" unicode="ÿ" d="M456 -167 q-17 -53 -50 -116.5 q-33 -63.5 -88.5 -108.5 q-55.5 -45 -137.5 -45 q-20 0 -49 5.5 q-29 5.5 -42 10.5 l0 150 q16 -4 38 -4 q78 0 122.5 38.5 q44.5 38.5 72.5 138.5 l32 108 l-319 1072 l193 0 l201 -787 l196 787 l188 0 l-357 -1249 ZM123 1371 q0 45 28 76 q28 31 81 31 q54 0 82 -31 q28 -31 28 -76 q0 -43 -28 -73.5 q-28 -30.5 -82 -30.5 q-53 0 -81 30.5 q-28 30.5 -28 73.5 ZM554 1369 q0 45 27.5 76 q27.5 31 81.5 31 q53 0 81.5 -31 q28.5 -31 28.5 -76 q0 -43 -28.5 -73.5 q-28.5 -30.5 -81.5 -30.5 q-54 0 -81.5 30.5 q-27.5 30.5 -27.5 73.5 Z" /><glyph glyph-name="Ydieresis" unicode="&#x178;" d="M239 1456 l297 -731 l298 731 l208 0 l-414 -912 l0 -544 l-184 0 l0 544 l-414 912 l209 0 ZM219 1681 q0 45 28 76 q28 31 81 31 q54 0 82 -31 q28 -31 28 -76 q0 -43 -28 -73.5 q-28 -30.5 -82 -30.5 q-53 0 -81 30.5 q-28 30.5 -28 73.5 ZM650 1679 q0 45 27.5 76 q27.5 31 81.5 31 q53 0 81.5 -31 q28.5 -31 28.5 -76 q0 -43 -28.5 -73.5 q-28.5 -30.5 -81.5 -30.5 q-54 0 -81.5 30.5 q-27.5 30.5 -27.5 73.5 Z" /></font>
</defs>
</svg>
